<svg xmlns="http://www.w3.org/2000/svg" width="103" height="57" viewBox="0 0 103 57">
  <g id="Grupo_20" data-name="Grupo 20" transform="translate(-342 -200)">
    <g id="User" transform="translate(396 200)">
      <path id="User-2" data-name="User" d="M35.442,15.3A7.942,7.942,0,1,1,27.5,7.344,7.95,7.95,0,0,1,35.442,15.3Zm5.25,0A13.193,13.193,0,1,1,27.5,2,13.246,13.246,0,0,1,40.692,15.3ZM22.122,37.744H32.878c7.463,0,13.872,6.476,13.872,14.923a1.118,1.118,0,0,1-.287.777.591.591,0,0,1-.439.213H8.976a.59.59,0,0,1-.439-.213,1.117,1.117,0,0,1-.287-.777C8.25,44.219,14.659,37.744,22.122,37.744ZM3,52.667C3,41.474,11.561,32.4,22.122,32.4H32.878C43.439,32.4,52,41.474,52,52.667A6.162,6.162,0,0,1,46.024,59H8.976A6.162,6.162,0,0,1,3,52.667Z" transform="translate(-3 -2)" fill="#3b3b3b" fill-rule="evenodd"/>
    </g>
    <g id="User-3" data-name="User" transform="translate(369 200)">
      <path id="User-4" data-name="User" d="M35.442,15.3A7.942,7.942,0,1,1,27.5,7.344,7.95,7.95,0,0,1,35.442,15.3Zm5.25,0A13.193,13.193,0,1,1,27.5,2,13.246,13.246,0,0,1,40.692,15.3ZM22.122,37.744H32.878c7.463,0,13.872,6.476,13.872,14.923a1.118,1.118,0,0,1-.287.777.591.591,0,0,1-.439.213H8.976a.59.59,0,0,1-.439-.213,1.117,1.117,0,0,1-.287-.777C8.25,44.219,14.659,37.744,22.122,37.744ZM3,52.667C3,41.474,11.561,32.4,22.122,32.4H32.878C43.439,32.4,52,41.474,52,52.667A6.162,6.162,0,0,1,46.024,59H8.976A6.162,6.162,0,0,1,3,52.667Z" transform="translate(-3 -2)" fill="#3b3b3b" fill-rule="evenodd"/>
    </g>
    <g id="User-5" data-name="User" transform="translate(342 200)">
      <path id="User-6" data-name="User" d="M35.442,15.3A7.942,7.942,0,1,1,27.5,7.344,7.95,7.95,0,0,1,35.442,15.3Zm5.25,0A13.193,13.193,0,1,1,27.5,2,13.246,13.246,0,0,1,40.692,15.3ZM22.122,37.744H32.878c7.463,0,13.872,6.476,13.872,14.923a1.118,1.118,0,0,1-.287.777.591.591,0,0,1-.439.213H8.976a.59.59,0,0,1-.439-.213,1.117,1.117,0,0,1-.287-.777C8.25,44.219,14.659,37.744,22.122,37.744ZM3,52.667C3,41.474,11.561,32.4,22.122,32.4H32.878C43.439,32.4,52,41.474,52,52.667A6.162,6.162,0,0,1,46.024,59H8.976A6.162,6.162,0,0,1,3,52.667Z" transform="translate(-3 -2)" fill="#3b3b3b" fill-rule="evenodd"/>
    </g>
  </g>
</svg>
