<svg xmlns="http://www.w3.org/2000/svg" width="45.1" height="55" viewBox="0 0 45.1 55">
  <path id="Contacts" d="M9.236,8.226a3.661,3.661,0,0,1,2.587-1.07H42.936V39.383H11.822a8.831,8.831,0,0,0-3.658.793V10.809A3.65,3.65,0,0,1,9.236,8.226ZM8.164,48.191a3.655,3.655,0,0,0,3.658,3.652H42.936v-7.3H11.822a3.655,3.655,0,0,0-3.658,3.652ZM48.1,41.961V4.578A2.58,2.58,0,0,0,45.518,2h-33.7A8.815,8.815,0,0,0,3,10.809V48.191A8.815,8.815,0,0,0,11.822,57h33.7A2.58,2.58,0,0,0,48.1,54.422Z" transform="translate(-3 -2)" fill="#3b3b3b" fill-rule="evenodd"/>
</svg>
