<svg xmlns="http://www.w3.org/2000/svg" width="67.999" height="61.631" viewBox="0 0 67.999 61.631">
  <path id="Travel" d="M29.837,2.75a9.339,9.339,0,0,0-9.35,9.327v2.951H11.35A9.339,9.339,0,0,0,2,24.355v30.7a9.339,9.339,0,0,0,9.35,9.327h49.3A9.339,9.339,0,0,0,70,55.053v-30.7a9.339,9.339,0,0,0-9.35-9.327H51.512V12.077a9.339,9.339,0,0,0-9.35-9.327Zm15.3,12.278V12.077a2.94,2.94,0,0,0-.867-2.083,2.985,2.985,0,0,0-2.107-.869H29.837a2.986,2.986,0,0,0-2.108.869,2.94,2.94,0,0,0-.867,2.083v2.951ZM26.862,21.4H45.137V58H26.862Zm-6.375,0H11.35a2.963,2.963,0,0,0-2.975,2.952v30.7A2.963,2.963,0,0,0,11.35,58h9.137ZM51.512,58V21.4h9.137a2.964,2.964,0,0,1,2.975,2.952v30.7A2.964,2.964,0,0,1,60.649,58Z" transform="translate(-2 -2.75)" fill="#3b3b3b" fill-rule="evenodd"/>
</svg>
