<svg id="Lock" xmlns="http://www.w3.org/2000/svg" width="220" height="220" viewBox="0 0 220 220">
  <circle id="Elipse_67" data-name="Elipse 67" cx="110" cy="110" r="110" fill="#f7f7f7"/>
  <path id="Trazado_1927" data-name="Trazado 1927" d="M144.712,153.022,97.86,126.094c-3.473-2-6.288-7.349-6.288-11.952V82.455c0-4.6,2.814-6.671,6.288-4.725l46.852,26.928c3.474,2,6.288,7.349,6.288,11.952V148.3C151,152.9,148.186,155.012,144.712,153.022Z" fill="#e8a30a"/>
  <path id="Trazado_1928" data-name="Trazado 1928" d="M128.148,165.654l20.93-12.463-12.687-28.652-19.7,9.695Z" fill="#e8a30a"/>
  <path id="Trazado_1929" data-name="Trazado 1929" d="M73.557,89.461,94.207,77.2l5.171,38.18Z" fill="#e8a30a"/>
  <path id="Trazado_1930" data-name="Trazado 1930" d="M124.185,165.253,77.277,138.325C73.8,136.335,71,130.987,71,126.384V94.675c0-4.6,2.8-6.671,6.277-4.725l46.908,26.939c3.462,1.99,6.276,7.338,6.276,11.941v31.687C130.461,165.12,127.647,167.243,124.185,165.253Z" fill="#f9cb07"/>
  <path id="Trazado_1931" data-name="Trazado 1931" d="M96.6,89.027V64.956c0-9.773,6.891-13.731,15.39-8.895,8.5,4.881,15.39,16.766,15.39,26.528V106.66" fill="none" stroke="#cc8b09" stroke-miterlimit="10" stroke-width="10.46"/>
  <path id="Trazado_1932" data-name="Trazado 1932" d="M96.386,93.118c3.769,0,6.824-1.757,6.824-3.925s-3.055-3.925-6.824-3.925-6.824,1.757-6.824,3.925S92.618,93.118,96.386,93.118Z" fill="#cc8b09"/>
  <path id="Trazado_1933" data-name="Trazado 1933" d="M127.379,109.507c3.768,0,6.824-1.757,6.824-3.925s-3.056-3.925-6.824-3.925-6.824,1.757-6.824,3.925S123.61,109.507,127.379,109.507Z" fill="#cc8b09"/>
</svg>
